<mxfile host="app.diagrams.net" modified="2024-07-05T09:22:02.191Z" agent="Mozilla/5.0 (Windows NT 10.0; Win64; x64) AppleWebKit/537.36 (KHTML, like Gecko) Chrome/126.0.0.0 Safari/537.36" etag="d77cGnBL5ozMn-TtHKqn" version="24.6.4" type="github">
  <diagram id="iLxxflC99bP7nZbpEVpL" name="Page-2">
    <mxGraphModel dx="1167" dy="580" grid="1" gridSize="10" guides="1" tooltips="1" connect="1" arrows="1" fold="1" page="1" pageScale="1" pageWidth="850" pageHeight="1100" math="0" shadow="0">
      <root>
        <mxCell id="0" />
        <mxCell id="1" parent="0" />
        <mxCell id="SxoVJNAmKQWlHETA10KO-153" value="" style="edgeStyle=orthogonalEdgeStyle;rounded=0;orthogonalLoop=1;jettySize=auto;html=1;" edge="1" parent="1" source="SxoVJNAmKQWlHETA10KO-1" target="SxoVJNAmKQWlHETA10KO-152">
          <mxGeometry relative="1" as="geometry" />
        </mxCell>
        <mxCell id="SxoVJNAmKQWlHETA10KO-1" value="User Interface&#xa;(Frontend React)" style="whiteSpace=wrap;strokeWidth=2;fillColor=#ABC7FF;" vertex="1" parent="1">
          <mxGeometry x="273" y="30" width="117" height="60" as="geometry" />
        </mxCell>
        <mxCell id="SxoVJNAmKQWlHETA10KO-33" value="" style="edgeStyle=orthogonalEdgeStyle;rounded=0;orthogonalLoop=1;jettySize=auto;html=1;" edge="1" parent="1" source="SxoVJNAmKQWlHETA10KO-25">
          <mxGeometry relative="1" as="geometry">
            <mxPoint x="333" y="520" as="targetPoint" />
          </mxGeometry>
        </mxCell>
        <mxCell id="SxoVJNAmKQWlHETA10KO-162" style="edgeStyle=orthogonalEdgeStyle;rounded=0;orthogonalLoop=1;jettySize=auto;html=1;entryX=0.5;entryY=1;entryDx=0;entryDy=0;" edge="1" parent="1" source="SxoVJNAmKQWlHETA10KO-25" target="SxoVJNAmKQWlHETA10KO-152">
          <mxGeometry relative="1" as="geometry" />
        </mxCell>
        <mxCell id="SxoVJNAmKQWlHETA10KO-163" style="edgeStyle=orthogonalEdgeStyle;rounded=0;orthogonalLoop=1;jettySize=auto;html=1;exitX=1;exitY=0.5;exitDx=0;exitDy=0;entryX=0;entryY=0.5;entryDx=0;entryDy=0;" edge="1" parent="1" source="SxoVJNAmKQWlHETA10KO-25" target="SxoVJNAmKQWlHETA10KO-36">
          <mxGeometry relative="1" as="geometry" />
        </mxCell>
        <mxCell id="SxoVJNAmKQWlHETA10KO-25" value="DataBase&lt;div&gt;(SQLite)&lt;/div&gt;" style="rhombus;whiteSpace=wrap;html=1;strokeWidth=2;fillColor=#FF9933;" vertex="1" parent="1">
          <mxGeometry x="293" y="360" width="80" height="80" as="geometry" />
        </mxCell>
        <mxCell id="SxoVJNAmKQWlHETA10KO-156" value="" style="edgeStyle=orthogonalEdgeStyle;rounded=0;orthogonalLoop=1;jettySize=auto;html=1;" edge="1" parent="1" source="SxoVJNAmKQWlHETA10KO-27" target="SxoVJNAmKQWlHETA10KO-152">
          <mxGeometry relative="1" as="geometry" />
        </mxCell>
        <mxCell id="SxoVJNAmKQWlHETA10KO-27" value="ML/AI Features&lt;div&gt;(Budget suggestions, Expense predictions, Investment recommendations, etc)&lt;/div&gt;" style="whiteSpace=wrap;html=1;strokeWidth=2;fillColor=#99FFFF;" vertex="1" parent="1">
          <mxGeometry x="450" y="170" width="140" height="80" as="geometry" />
        </mxCell>
        <mxCell id="SxoVJNAmKQWlHETA10KO-165" value="" style="edgeStyle=orthogonalEdgeStyle;rounded=0;orthogonalLoop=1;jettySize=auto;html=1;" edge="1" parent="1" source="SxoVJNAmKQWlHETA10KO-34" target="SxoVJNAmKQWlHETA10KO-42">
          <mxGeometry relative="1" as="geometry" />
        </mxCell>
        <mxCell id="SxoVJNAmKQWlHETA10KO-34" value="Security and Compliance Layer&lt;div&gt;(Data Masking, Encryption, etc)&lt;/div&gt;" style="whiteSpace=wrap;html=1;strokeWidth=2;fillColor=#75859C;" vertex="1" parent="1">
          <mxGeometry x="90" y="290" width="140" height="60" as="geometry" />
        </mxCell>
        <mxCell id="SxoVJNAmKQWlHETA10KO-164" style="edgeStyle=orthogonalEdgeStyle;rounded=0;orthogonalLoop=1;jettySize=auto;html=1;exitX=0;exitY=0.25;exitDx=0;exitDy=0;entryX=0.75;entryY=1;entryDx=0;entryDy=0;" edge="1" parent="1" source="SxoVJNAmKQWlHETA10KO-36" target="SxoVJNAmKQWlHETA10KO-152">
          <mxGeometry relative="1" as="geometry" />
        </mxCell>
        <mxCell id="SxoVJNAmKQWlHETA10KO-36" value="Analytics Engine" style="whiteSpace=wrap;html=1;strokeWidth=2;fillColor=#FFCCFF;" vertex="1" parent="1">
          <mxGeometry x="450" y="370" width="120" height="60" as="geometry" />
        </mxCell>
        <mxCell id="SxoVJNAmKQWlHETA10KO-159" value="" style="edgeStyle=orthogonalEdgeStyle;rounded=0;orthogonalLoop=1;jettySize=auto;html=1;" edge="1" parent="1" source="SxoVJNAmKQWlHETA10KO-42" target="SxoVJNAmKQWlHETA10KO-152">
          <mxGeometry relative="1" as="geometry" />
        </mxCell>
        <mxCell id="SxoVJNAmKQWlHETA10KO-166" style="edgeStyle=orthogonalEdgeStyle;rounded=0;orthogonalLoop=1;jettySize=auto;html=1;entryX=0.5;entryY=0;entryDx=0;entryDy=0;" edge="1" parent="1" source="SxoVJNAmKQWlHETA10KO-42" target="SxoVJNAmKQWlHETA10KO-34">
          <mxGeometry relative="1" as="geometry" />
        </mxCell>
        <mxCell id="SxoVJNAmKQWlHETA10KO-42" value="&lt;div&gt;Data Aggregation&lt;/div&gt;&lt;div&gt;(Bank APIS,User Registration, Transaction Tracking, Budgeting Interface)&lt;/div&gt;" style="whiteSpace=wrap;html=1;strokeWidth=2;fillColor=#FF969D;" vertex="1" parent="1">
          <mxGeometry x="90" y="170" width="140" height="80" as="geometry" />
        </mxCell>
        <mxCell id="SxoVJNAmKQWlHETA10KO-157" style="edgeStyle=orthogonalEdgeStyle;rounded=0;orthogonalLoop=1;jettySize=auto;html=1;" edge="1" parent="1" source="SxoVJNAmKQWlHETA10KO-152" target="SxoVJNAmKQWlHETA10KO-27">
          <mxGeometry relative="1" as="geometry" />
        </mxCell>
        <mxCell id="SxoVJNAmKQWlHETA10KO-160" style="edgeStyle=orthogonalEdgeStyle;rounded=0;orthogonalLoop=1;jettySize=auto;html=1;" edge="1" parent="1" source="SxoVJNAmKQWlHETA10KO-152">
          <mxGeometry relative="1" as="geometry">
            <mxPoint x="230" y="210" as="targetPoint" />
          </mxGeometry>
        </mxCell>
        <mxCell id="SxoVJNAmKQWlHETA10KO-161" style="edgeStyle=orthogonalEdgeStyle;rounded=0;orthogonalLoop=1;jettySize=auto;html=1;entryX=0.5;entryY=0;entryDx=0;entryDy=0;fillColor=#FFFFFF;" edge="1" parent="1" source="SxoVJNAmKQWlHETA10KO-152" target="SxoVJNAmKQWlHETA10KO-25">
          <mxGeometry relative="1" as="geometry" />
        </mxCell>
        <mxCell id="SxoVJNAmKQWlHETA10KO-169" style="edgeStyle=orthogonalEdgeStyle;rounded=0;orthogonalLoop=1;jettySize=auto;html=1;entryX=0.5;entryY=1;entryDx=0;entryDy=0;fillColor=#FFFFFF;" edge="1" parent="1" source="SxoVJNAmKQWlHETA10KO-152" target="SxoVJNAmKQWlHETA10KO-1">
          <mxGeometry relative="1" as="geometry" />
        </mxCell>
        <mxCell id="SxoVJNAmKQWlHETA10KO-152" value="Backend Server&lt;div&gt;(Flask Framewok)&lt;/div&gt;" style="rounded=1;whiteSpace=wrap;html=1;strokeWidth=2;fillColor=#FFFFFF;" vertex="1" parent="1">
          <mxGeometry x="273" y="180" width="120" height="60" as="geometry" />
        </mxCell>
        <mxCell id="SxoVJNAmKQWlHETA10KO-168" style="edgeStyle=orthogonalEdgeStyle;rounded=0;orthogonalLoop=1;jettySize=auto;html=1;exitX=0.081;exitY=-0.059;exitDx=0;exitDy=0;entryX=0.25;entryY=1;entryDx=0;entryDy=0;exitPerimeter=0;" edge="1" parent="1" target="SxoVJNAmKQWlHETA10KO-152">
          <mxGeometry relative="1" as="geometry">
            <mxPoint x="282.72" y="516.46" as="sourcePoint" />
          </mxGeometry>
        </mxCell>
        <mxCell id="SxoVJNAmKQWlHETA10KO-170" style="edgeStyle=orthogonalEdgeStyle;rounded=0;orthogonalLoop=1;jettySize=auto;html=1;exitX=1;exitY=0.5;exitDx=0;exitDy=0;entryX=0.142;entryY=1;entryDx=0;entryDy=0;entryPerimeter=0;" edge="1" parent="1" source="SxoVJNAmKQWlHETA10KO-34" target="SxoVJNAmKQWlHETA10KO-152">
          <mxGeometry relative="1" as="geometry" />
        </mxCell>
        <mxCell id="SxoVJNAmKQWlHETA10KO-173" value="&lt;span style=&quot;background-color: rgb(237, 237, 237);&quot;&gt;Cloud Infrastructure&lt;/span&gt;" style="ellipse;shape=cloud;whiteSpace=wrap;html=1;fillColor=#1A1A1A;" vertex="1" parent="1">
          <mxGeometry x="230" y="510" width="160" height="80" as="geometry" />
        </mxCell>
      </root>
    </mxGraphModel>
  </diagram>
</mxfile>
